M48
;GenerationSoftware,Autodesk,EAGLE,9.6.2*%
;CreationDate,2022-06-30T06:50:03Z*%
FMAT,2
ICI,OFF
METRIC,TZ,000.000
T2C1.194
T1C1.200
%
G90
M71
T1
X142474Y24506
X31250Y54412
X137776Y82825
X142474Y84535
X147680Y88778
X151510Y91992
X137776Y70819
X142474Y72529
X147680Y76251
X151510Y79465
X137776Y58813
X142474Y60523
X147680Y63725
X151510Y66939
X137776Y46807
X142474Y48517
X147680Y51198
X151510Y54412
X116165Y49944
X121165Y49944
X116165Y37414
X121165Y37414
X127068Y53627
X132068Y53627
X127068Y41803
X132068Y41803
X147680Y38672
X151510Y41886
X137776Y34802
X142474Y36512
X137776Y22796
X147932Y26540
X151762Y29754
X105498Y7158
X110498Y7158
X105498Y19348
X110498Y19348
X94584Y5364
X99584Y5364
X94584Y16715
X99584Y16715
X127068Y18153
X132068Y18153
X127068Y29978
X132068Y29978
X116165Y12356
X121165Y12356
X116165Y24885
X121165Y24885
X116165Y62473
X121165Y62473
X127068Y65452
X132068Y65452
X127068Y77277
X132068Y77277
X94584Y28066
X99584Y28066
X94584Y39417
X99584Y39417
X105498Y31538
X110498Y31538
X105498Y43728
X110498Y43728
X62176Y49944
X67176Y49944
X62176Y37414
X67176Y37414
X51300Y53627
X56300Y53627
X51300Y41803
X56300Y41803
X31250Y41886
X35080Y38672
X40658Y36512
X45357Y34802
X40658Y24506
X45357Y22796
X31250Y29359
X35080Y26145
X40658Y84535
X45357Y82825
X31250Y91992
X35080Y88778
X40658Y72529
X45357Y70819
X31250Y79465
X35080Y76251
X40658Y60523
X45357Y58813
X31250Y66939
X35080Y63725
X40658Y48517
X45357Y46807
X35080Y51198
X62176Y62473
X67176Y62473
X51300Y65452
X56300Y65452
X51300Y77277
X56300Y77277
X83748Y28066
X88748Y28066
X83748Y39417
X88748Y39417
X72960Y31538
X77960Y31538
X72960Y43728
X77960Y43728
X72960Y7158
X77960Y7158
X72960Y19348
X77960Y19348
X83748Y5364
X88748Y5364
X83748Y16715
X88748Y16715
X51300Y18153
X56300Y18153
X51300Y29978
X56300Y29978
X62176Y12356
X67176Y12356
X62176Y24885
X67176Y24885
T2
X11659Y51511
X14199Y51511
X160934Y48768
X14199Y48971
X158420Y96164
X160960Y96164
X158420Y93624
X160960Y93624
X158420Y91084
X160960Y91084
X158420Y88544
X160960Y88544
X158420Y86004
X160960Y86004
X158420Y83464
X160960Y83464
X158420Y80924
X160960Y80924
X158420Y78384
X160960Y78384
X158394Y66548
X160934Y66548
X158394Y64008
X160934Y64008
X158394Y61468
X160934Y61468
X158394Y58928
X160934Y58928
X158394Y56388
X160934Y56388
X158394Y53848
X160934Y53848
X158394Y51308
X11659Y48971
X160934Y51308
X158394Y48768
X169012Y66548
X171552Y66548
X169012Y64008
X171552Y64008
X169012Y61468
X171552Y61468
X169012Y58928
X171552Y58928
X169012Y56388
X171552Y56388
X169012Y53848
X171552Y53848
X169012Y51308
X171552Y51308
X169012Y48768
X171552Y48768
X169113Y96266
X171653Y96266
X169113Y93726
X171653Y93726
X169113Y91186
X171653Y91186
X169113Y88646
X171653Y88646
X169113Y86106
X171653Y86106
X169113Y83566
X171653Y83566
X169113Y81026
X171653Y81026
X169113Y78486
X171653Y78486
X21641Y66777
X24181Y66777
X21641Y64237
X24181Y64237
X21641Y61697
X24181Y61697
X21641Y59157
X24181Y59157
X21641Y56617
X24181Y56617
X21641Y54077
X24181Y54077
X21641Y51537
X24181Y51537
X21641Y48997
X24181Y48997
X21742Y96545
X24282Y96545
X21742Y94005
X24282Y94005
X21742Y91465
X24282Y91465
X21742Y88925
X24282Y88925
X21742Y86385
X24282Y86385
X21742Y83845
X24282Y83845
X24282Y78765
X21742Y81305
X24282Y81305
X21742Y78765
X11659Y96520
X14199Y96520
X11659Y93980
X14199Y93980
X11659Y91440
X14199Y91440
X11659Y88900
X14199Y88900
X11659Y86360
X14199Y86360
X11659Y83820
X14199Y83820
X11659Y81280
X14199Y81280
X11659Y78740
X14199Y78740
X11659Y66751
X14199Y66751
X11659Y64211
X14199Y64211
X11659Y61671
X14199Y61671
X11659Y59131
X14199Y59131
X11659Y56591
X14199Y56591
X11659Y54051
X14199Y54051
M30