G04 EAGLE Gerber RS-274X export*
G75*
%MOMM*%
%FSLAX34Y34*%
%LPD*%
%INSilkscreen Bottom*%
%IPPOS*%
%AMOC8*
5,1,8,0,0,1.08239X$1,22.5*%
G01*
%ADD10C,0.508000*%


D10*
X1584198Y1023874D02*
X1584076Y1023872D01*
X1583954Y1023866D01*
X1583832Y1023856D01*
X1583711Y1023843D01*
X1583590Y1023825D01*
X1583470Y1023804D01*
X1583350Y1023778D01*
X1583232Y1023749D01*
X1583114Y1023717D01*
X1582997Y1023680D01*
X1582882Y1023640D01*
X1582768Y1023596D01*
X1582656Y1023548D01*
X1582545Y1023497D01*
X1582436Y1023442D01*
X1582328Y1023384D01*
X1582223Y1023322D01*
X1582120Y1023257D01*
X1582018Y1023189D01*
X1581919Y1023117D01*
X1581823Y1023043D01*
X1581728Y1022965D01*
X1581637Y1022884D01*
X1581547Y1022801D01*
X1581461Y1022715D01*
X1581378Y1022625D01*
X1581297Y1022534D01*
X1581219Y1022439D01*
X1581145Y1022343D01*
X1581073Y1022244D01*
X1581005Y1022142D01*
X1580940Y1022039D01*
X1580878Y1021934D01*
X1580820Y1021826D01*
X1580765Y1021717D01*
X1580714Y1021606D01*
X1580666Y1021494D01*
X1580622Y1021380D01*
X1580582Y1021265D01*
X1580545Y1021148D01*
X1580513Y1021030D01*
X1580484Y1020912D01*
X1580458Y1020792D01*
X1580437Y1020672D01*
X1580419Y1020551D01*
X1580406Y1020430D01*
X1580396Y1020308D01*
X1580390Y1020186D01*
X1580388Y1020064D01*
X1580390Y1019942D01*
X1580396Y1019820D01*
X1580406Y1019698D01*
X1580419Y1019577D01*
X1580437Y1019456D01*
X1580458Y1019336D01*
X1580484Y1019216D01*
X1580513Y1019098D01*
X1580545Y1018980D01*
X1580582Y1018863D01*
X1580622Y1018748D01*
X1580666Y1018634D01*
X1580714Y1018522D01*
X1580765Y1018411D01*
X1580820Y1018302D01*
X1580878Y1018194D01*
X1580940Y1018089D01*
X1581005Y1017986D01*
X1581073Y1017884D01*
X1581145Y1017785D01*
X1581219Y1017689D01*
X1581297Y1017594D01*
X1581378Y1017503D01*
X1581461Y1017413D01*
X1581547Y1017327D01*
X1581637Y1017244D01*
X1581728Y1017163D01*
X1581823Y1017085D01*
X1581919Y1017011D01*
X1582018Y1016939D01*
X1582120Y1016871D01*
X1582223Y1016806D01*
X1582328Y1016744D01*
X1582436Y1016686D01*
X1582545Y1016631D01*
X1582656Y1016580D01*
X1582768Y1016532D01*
X1582882Y1016488D01*
X1582997Y1016448D01*
X1583114Y1016411D01*
X1583232Y1016379D01*
X1583350Y1016350D01*
X1583470Y1016324D01*
X1583590Y1016303D01*
X1583711Y1016285D01*
X1583832Y1016272D01*
X1583954Y1016262D01*
X1584076Y1016256D01*
X1584198Y1016254D01*
X1584320Y1016256D01*
X1584442Y1016262D01*
X1584564Y1016272D01*
X1584685Y1016285D01*
X1584806Y1016303D01*
X1584926Y1016324D01*
X1585046Y1016350D01*
X1585164Y1016379D01*
X1585282Y1016411D01*
X1585399Y1016448D01*
X1585514Y1016488D01*
X1585628Y1016532D01*
X1585740Y1016580D01*
X1585851Y1016631D01*
X1585960Y1016686D01*
X1586068Y1016744D01*
X1586173Y1016806D01*
X1586276Y1016871D01*
X1586378Y1016939D01*
X1586477Y1017011D01*
X1586573Y1017085D01*
X1586668Y1017163D01*
X1586759Y1017244D01*
X1586849Y1017327D01*
X1586935Y1017413D01*
X1587018Y1017503D01*
X1587099Y1017594D01*
X1587177Y1017689D01*
X1587251Y1017785D01*
X1587323Y1017884D01*
X1587391Y1017986D01*
X1587456Y1018089D01*
X1587518Y1018194D01*
X1587576Y1018302D01*
X1587631Y1018411D01*
X1587682Y1018522D01*
X1587730Y1018634D01*
X1587774Y1018748D01*
X1587814Y1018863D01*
X1587851Y1018980D01*
X1587883Y1019098D01*
X1587912Y1019216D01*
X1587938Y1019336D01*
X1587959Y1019456D01*
X1587977Y1019577D01*
X1587990Y1019698D01*
X1588000Y1019820D01*
X1588006Y1019942D01*
X1588008Y1020064D01*
X1588006Y1020186D01*
X1588000Y1020308D01*
X1587990Y1020430D01*
X1587977Y1020551D01*
X1587959Y1020672D01*
X1587938Y1020792D01*
X1587912Y1020912D01*
X1587883Y1021030D01*
X1587851Y1021148D01*
X1587814Y1021265D01*
X1587774Y1021380D01*
X1587730Y1021494D01*
X1587682Y1021606D01*
X1587631Y1021717D01*
X1587576Y1021826D01*
X1587518Y1021934D01*
X1587456Y1022039D01*
X1587391Y1022142D01*
X1587323Y1022244D01*
X1587251Y1022343D01*
X1587177Y1022439D01*
X1587099Y1022534D01*
X1587018Y1022625D01*
X1586935Y1022715D01*
X1586849Y1022801D01*
X1586759Y1022884D01*
X1586668Y1022965D01*
X1586573Y1023043D01*
X1586477Y1023117D01*
X1586378Y1023189D01*
X1586276Y1023257D01*
X1586173Y1023322D01*
X1586068Y1023384D01*
X1585960Y1023442D01*
X1585851Y1023497D01*
X1585740Y1023548D01*
X1585628Y1023596D01*
X1585514Y1023640D01*
X1585399Y1023680D01*
X1585282Y1023717D01*
X1585164Y1023749D01*
X1585046Y1023778D01*
X1584926Y1023804D01*
X1584806Y1023825D01*
X1584685Y1023843D01*
X1584564Y1023856D01*
X1584442Y1023866D01*
X1584320Y1023872D01*
X1584198Y1023874D01*
X1583944Y727710D02*
X1583822Y727708D01*
X1583700Y727702D01*
X1583578Y727692D01*
X1583457Y727679D01*
X1583336Y727661D01*
X1583216Y727640D01*
X1583096Y727614D01*
X1582978Y727585D01*
X1582860Y727553D01*
X1582743Y727516D01*
X1582628Y727476D01*
X1582514Y727432D01*
X1582402Y727384D01*
X1582291Y727333D01*
X1582182Y727278D01*
X1582074Y727220D01*
X1581969Y727158D01*
X1581866Y727093D01*
X1581764Y727025D01*
X1581665Y726953D01*
X1581569Y726879D01*
X1581474Y726801D01*
X1581383Y726720D01*
X1581293Y726637D01*
X1581207Y726551D01*
X1581124Y726461D01*
X1581043Y726370D01*
X1580965Y726275D01*
X1580891Y726179D01*
X1580819Y726080D01*
X1580751Y725978D01*
X1580686Y725875D01*
X1580624Y725770D01*
X1580566Y725662D01*
X1580511Y725553D01*
X1580460Y725442D01*
X1580412Y725330D01*
X1580368Y725216D01*
X1580328Y725101D01*
X1580291Y724984D01*
X1580259Y724866D01*
X1580230Y724748D01*
X1580204Y724628D01*
X1580183Y724508D01*
X1580165Y724387D01*
X1580152Y724266D01*
X1580142Y724144D01*
X1580136Y724022D01*
X1580134Y723900D01*
X1580136Y723778D01*
X1580142Y723656D01*
X1580152Y723534D01*
X1580165Y723413D01*
X1580183Y723292D01*
X1580204Y723172D01*
X1580230Y723052D01*
X1580259Y722934D01*
X1580291Y722816D01*
X1580328Y722699D01*
X1580368Y722584D01*
X1580412Y722470D01*
X1580460Y722358D01*
X1580511Y722247D01*
X1580566Y722138D01*
X1580624Y722030D01*
X1580686Y721925D01*
X1580751Y721822D01*
X1580819Y721720D01*
X1580891Y721621D01*
X1580965Y721525D01*
X1581043Y721430D01*
X1581124Y721339D01*
X1581207Y721249D01*
X1581293Y721163D01*
X1581383Y721080D01*
X1581474Y720999D01*
X1581569Y720921D01*
X1581665Y720847D01*
X1581764Y720775D01*
X1581866Y720707D01*
X1581969Y720642D01*
X1582074Y720580D01*
X1582182Y720522D01*
X1582291Y720467D01*
X1582402Y720416D01*
X1582514Y720368D01*
X1582628Y720324D01*
X1582743Y720284D01*
X1582860Y720247D01*
X1582978Y720215D01*
X1583096Y720186D01*
X1583216Y720160D01*
X1583336Y720139D01*
X1583457Y720121D01*
X1583578Y720108D01*
X1583700Y720098D01*
X1583822Y720092D01*
X1583944Y720090D01*
X1584066Y720092D01*
X1584188Y720098D01*
X1584310Y720108D01*
X1584431Y720121D01*
X1584552Y720139D01*
X1584672Y720160D01*
X1584792Y720186D01*
X1584910Y720215D01*
X1585028Y720247D01*
X1585145Y720284D01*
X1585260Y720324D01*
X1585374Y720368D01*
X1585486Y720416D01*
X1585597Y720467D01*
X1585706Y720522D01*
X1585814Y720580D01*
X1585919Y720642D01*
X1586022Y720707D01*
X1586124Y720775D01*
X1586223Y720847D01*
X1586319Y720921D01*
X1586414Y720999D01*
X1586505Y721080D01*
X1586595Y721163D01*
X1586681Y721249D01*
X1586764Y721339D01*
X1586845Y721430D01*
X1586923Y721525D01*
X1586997Y721621D01*
X1587069Y721720D01*
X1587137Y721822D01*
X1587202Y721925D01*
X1587264Y722030D01*
X1587322Y722138D01*
X1587377Y722247D01*
X1587428Y722358D01*
X1587476Y722470D01*
X1587520Y722584D01*
X1587560Y722699D01*
X1587597Y722816D01*
X1587629Y722934D01*
X1587658Y723052D01*
X1587684Y723172D01*
X1587705Y723292D01*
X1587723Y723413D01*
X1587736Y723534D01*
X1587746Y723656D01*
X1587752Y723778D01*
X1587754Y723900D01*
X1587752Y724022D01*
X1587746Y724144D01*
X1587736Y724266D01*
X1587723Y724387D01*
X1587705Y724508D01*
X1587684Y724628D01*
X1587658Y724748D01*
X1587629Y724866D01*
X1587597Y724984D01*
X1587560Y725101D01*
X1587520Y725216D01*
X1587476Y725330D01*
X1587428Y725442D01*
X1587377Y725553D01*
X1587322Y725662D01*
X1587264Y725770D01*
X1587202Y725875D01*
X1587137Y725978D01*
X1587069Y726080D01*
X1586997Y726179D01*
X1586923Y726275D01*
X1586845Y726370D01*
X1586764Y726461D01*
X1586681Y726551D01*
X1586595Y726637D01*
X1586505Y726720D01*
X1586414Y726801D01*
X1586319Y726879D01*
X1586223Y726953D01*
X1586124Y727025D01*
X1586022Y727093D01*
X1585919Y727158D01*
X1585814Y727220D01*
X1585706Y727278D01*
X1585597Y727333D01*
X1585486Y727384D01*
X1585374Y727432D01*
X1585260Y727476D01*
X1585145Y727516D01*
X1585028Y727553D01*
X1584910Y727585D01*
X1584792Y727614D01*
X1584672Y727640D01*
X1584552Y727661D01*
X1584431Y727679D01*
X1584310Y727692D01*
X1584188Y727702D01*
X1584066Y727708D01*
X1583944Y727710D01*
X1690116Y727710D02*
X1689994Y727708D01*
X1689872Y727702D01*
X1689750Y727692D01*
X1689629Y727679D01*
X1689508Y727661D01*
X1689388Y727640D01*
X1689268Y727614D01*
X1689150Y727585D01*
X1689032Y727553D01*
X1688915Y727516D01*
X1688800Y727476D01*
X1688686Y727432D01*
X1688574Y727384D01*
X1688463Y727333D01*
X1688354Y727278D01*
X1688246Y727220D01*
X1688141Y727158D01*
X1688038Y727093D01*
X1687936Y727025D01*
X1687837Y726953D01*
X1687741Y726879D01*
X1687646Y726801D01*
X1687555Y726720D01*
X1687465Y726637D01*
X1687379Y726551D01*
X1687296Y726461D01*
X1687215Y726370D01*
X1687137Y726275D01*
X1687063Y726179D01*
X1686991Y726080D01*
X1686923Y725978D01*
X1686858Y725875D01*
X1686796Y725770D01*
X1686738Y725662D01*
X1686683Y725553D01*
X1686632Y725442D01*
X1686584Y725330D01*
X1686540Y725216D01*
X1686500Y725101D01*
X1686463Y724984D01*
X1686431Y724866D01*
X1686402Y724748D01*
X1686376Y724628D01*
X1686355Y724508D01*
X1686337Y724387D01*
X1686324Y724266D01*
X1686314Y724144D01*
X1686308Y724022D01*
X1686306Y723900D01*
X1686308Y723778D01*
X1686314Y723656D01*
X1686324Y723534D01*
X1686337Y723413D01*
X1686355Y723292D01*
X1686376Y723172D01*
X1686402Y723052D01*
X1686431Y722934D01*
X1686463Y722816D01*
X1686500Y722699D01*
X1686540Y722584D01*
X1686584Y722470D01*
X1686632Y722358D01*
X1686683Y722247D01*
X1686738Y722138D01*
X1686796Y722030D01*
X1686858Y721925D01*
X1686923Y721822D01*
X1686991Y721720D01*
X1687063Y721621D01*
X1687137Y721525D01*
X1687215Y721430D01*
X1687296Y721339D01*
X1687379Y721249D01*
X1687465Y721163D01*
X1687555Y721080D01*
X1687646Y720999D01*
X1687741Y720921D01*
X1687837Y720847D01*
X1687936Y720775D01*
X1688038Y720707D01*
X1688141Y720642D01*
X1688246Y720580D01*
X1688354Y720522D01*
X1688463Y720467D01*
X1688574Y720416D01*
X1688686Y720368D01*
X1688800Y720324D01*
X1688915Y720284D01*
X1689032Y720247D01*
X1689150Y720215D01*
X1689268Y720186D01*
X1689388Y720160D01*
X1689508Y720139D01*
X1689629Y720121D01*
X1689750Y720108D01*
X1689872Y720098D01*
X1689994Y720092D01*
X1690116Y720090D01*
X1690238Y720092D01*
X1690360Y720098D01*
X1690482Y720108D01*
X1690603Y720121D01*
X1690724Y720139D01*
X1690844Y720160D01*
X1690964Y720186D01*
X1691082Y720215D01*
X1691200Y720247D01*
X1691317Y720284D01*
X1691432Y720324D01*
X1691546Y720368D01*
X1691658Y720416D01*
X1691769Y720467D01*
X1691878Y720522D01*
X1691986Y720580D01*
X1692091Y720642D01*
X1692194Y720707D01*
X1692296Y720775D01*
X1692395Y720847D01*
X1692491Y720921D01*
X1692586Y720999D01*
X1692677Y721080D01*
X1692767Y721163D01*
X1692853Y721249D01*
X1692936Y721339D01*
X1693017Y721430D01*
X1693095Y721525D01*
X1693169Y721621D01*
X1693241Y721720D01*
X1693309Y721822D01*
X1693374Y721925D01*
X1693436Y722030D01*
X1693494Y722138D01*
X1693549Y722247D01*
X1693600Y722358D01*
X1693648Y722470D01*
X1693692Y722584D01*
X1693732Y722699D01*
X1693769Y722816D01*
X1693801Y722934D01*
X1693830Y723052D01*
X1693856Y723172D01*
X1693877Y723292D01*
X1693895Y723413D01*
X1693908Y723534D01*
X1693918Y723656D01*
X1693924Y723778D01*
X1693926Y723900D01*
X1693924Y724022D01*
X1693918Y724144D01*
X1693908Y724266D01*
X1693895Y724387D01*
X1693877Y724508D01*
X1693856Y724628D01*
X1693830Y724748D01*
X1693801Y724866D01*
X1693769Y724984D01*
X1693732Y725101D01*
X1693692Y725216D01*
X1693648Y725330D01*
X1693600Y725442D01*
X1693549Y725553D01*
X1693494Y725662D01*
X1693436Y725770D01*
X1693374Y725875D01*
X1693309Y725978D01*
X1693241Y726080D01*
X1693169Y726179D01*
X1693095Y726275D01*
X1693017Y726370D01*
X1692936Y726461D01*
X1692853Y726551D01*
X1692767Y726637D01*
X1692677Y726720D01*
X1692586Y726801D01*
X1692491Y726879D01*
X1692395Y726953D01*
X1692296Y727025D01*
X1692194Y727093D01*
X1692091Y727158D01*
X1691986Y727220D01*
X1691878Y727278D01*
X1691769Y727333D01*
X1691658Y727384D01*
X1691546Y727432D01*
X1691432Y727476D01*
X1691317Y727516D01*
X1691200Y727553D01*
X1691082Y727585D01*
X1690964Y727614D01*
X1690844Y727640D01*
X1690724Y727661D01*
X1690603Y727679D01*
X1690482Y727692D01*
X1690360Y727702D01*
X1690238Y727708D01*
X1690116Y727710D01*
X1691132Y1017270D02*
X1691010Y1017272D01*
X1690888Y1017278D01*
X1690766Y1017288D01*
X1690645Y1017301D01*
X1690524Y1017319D01*
X1690404Y1017340D01*
X1690284Y1017366D01*
X1690166Y1017395D01*
X1690048Y1017427D01*
X1689931Y1017464D01*
X1689816Y1017504D01*
X1689702Y1017548D01*
X1689590Y1017596D01*
X1689479Y1017647D01*
X1689370Y1017702D01*
X1689262Y1017760D01*
X1689157Y1017822D01*
X1689054Y1017887D01*
X1688952Y1017955D01*
X1688853Y1018027D01*
X1688757Y1018101D01*
X1688662Y1018179D01*
X1688571Y1018260D01*
X1688481Y1018343D01*
X1688395Y1018429D01*
X1688312Y1018519D01*
X1688231Y1018610D01*
X1688153Y1018705D01*
X1688079Y1018801D01*
X1688007Y1018900D01*
X1687939Y1019002D01*
X1687874Y1019105D01*
X1687812Y1019210D01*
X1687754Y1019318D01*
X1687699Y1019427D01*
X1687648Y1019538D01*
X1687600Y1019650D01*
X1687556Y1019764D01*
X1687516Y1019879D01*
X1687479Y1019996D01*
X1687447Y1020114D01*
X1687418Y1020232D01*
X1687392Y1020352D01*
X1687371Y1020472D01*
X1687353Y1020593D01*
X1687340Y1020714D01*
X1687330Y1020836D01*
X1687324Y1020958D01*
X1687322Y1021080D01*
X1687324Y1021202D01*
X1687330Y1021324D01*
X1687340Y1021446D01*
X1687353Y1021567D01*
X1687371Y1021688D01*
X1687392Y1021808D01*
X1687418Y1021928D01*
X1687447Y1022046D01*
X1687479Y1022164D01*
X1687516Y1022281D01*
X1687556Y1022396D01*
X1687600Y1022510D01*
X1687648Y1022622D01*
X1687699Y1022733D01*
X1687754Y1022842D01*
X1687812Y1022950D01*
X1687874Y1023055D01*
X1687939Y1023158D01*
X1688007Y1023260D01*
X1688079Y1023359D01*
X1688153Y1023455D01*
X1688231Y1023550D01*
X1688312Y1023641D01*
X1688395Y1023731D01*
X1688481Y1023817D01*
X1688571Y1023900D01*
X1688662Y1023981D01*
X1688757Y1024059D01*
X1688853Y1024133D01*
X1688952Y1024205D01*
X1689054Y1024273D01*
X1689157Y1024338D01*
X1689262Y1024400D01*
X1689370Y1024458D01*
X1689479Y1024513D01*
X1689590Y1024564D01*
X1689702Y1024612D01*
X1689816Y1024656D01*
X1689931Y1024696D01*
X1690048Y1024733D01*
X1690166Y1024765D01*
X1690284Y1024794D01*
X1690404Y1024820D01*
X1690524Y1024841D01*
X1690645Y1024859D01*
X1690766Y1024872D01*
X1690888Y1024882D01*
X1691010Y1024888D01*
X1691132Y1024890D01*
X1691254Y1024888D01*
X1691376Y1024882D01*
X1691498Y1024872D01*
X1691619Y1024859D01*
X1691740Y1024841D01*
X1691860Y1024820D01*
X1691980Y1024794D01*
X1692098Y1024765D01*
X1692216Y1024733D01*
X1692333Y1024696D01*
X1692448Y1024656D01*
X1692562Y1024612D01*
X1692674Y1024564D01*
X1692785Y1024513D01*
X1692894Y1024458D01*
X1693002Y1024400D01*
X1693107Y1024338D01*
X1693210Y1024273D01*
X1693312Y1024205D01*
X1693411Y1024133D01*
X1693507Y1024059D01*
X1693602Y1023981D01*
X1693693Y1023900D01*
X1693783Y1023817D01*
X1693869Y1023731D01*
X1693952Y1023641D01*
X1694033Y1023550D01*
X1694111Y1023455D01*
X1694185Y1023359D01*
X1694257Y1023260D01*
X1694325Y1023158D01*
X1694390Y1023055D01*
X1694452Y1022950D01*
X1694510Y1022842D01*
X1694565Y1022733D01*
X1694616Y1022622D01*
X1694664Y1022510D01*
X1694708Y1022396D01*
X1694748Y1022281D01*
X1694785Y1022164D01*
X1694817Y1022046D01*
X1694846Y1021928D01*
X1694872Y1021808D01*
X1694893Y1021688D01*
X1694911Y1021567D01*
X1694924Y1021446D01*
X1694934Y1021324D01*
X1694940Y1021202D01*
X1694942Y1021080D01*
X1694940Y1020958D01*
X1694934Y1020836D01*
X1694924Y1020714D01*
X1694911Y1020593D01*
X1694893Y1020472D01*
X1694872Y1020352D01*
X1694846Y1020232D01*
X1694817Y1020114D01*
X1694785Y1019996D01*
X1694748Y1019879D01*
X1694708Y1019764D01*
X1694664Y1019650D01*
X1694616Y1019538D01*
X1694565Y1019427D01*
X1694510Y1019318D01*
X1694452Y1019210D01*
X1694390Y1019105D01*
X1694325Y1019002D01*
X1694257Y1018900D01*
X1694185Y1018801D01*
X1694111Y1018705D01*
X1694033Y1018610D01*
X1693952Y1018519D01*
X1693869Y1018429D01*
X1693783Y1018343D01*
X1693693Y1018260D01*
X1693602Y1018179D01*
X1693507Y1018101D01*
X1693411Y1018027D01*
X1693312Y1017955D01*
X1693210Y1017887D01*
X1693107Y1017822D01*
X1693002Y1017760D01*
X1692894Y1017702D01*
X1692785Y1017647D01*
X1692674Y1017596D01*
X1692562Y1017548D01*
X1692448Y1017504D01*
X1692333Y1017464D01*
X1692216Y1017427D01*
X1692098Y1017395D01*
X1691980Y1017366D01*
X1691860Y1017340D01*
X1691740Y1017319D01*
X1691619Y1017301D01*
X1691498Y1017288D01*
X1691376Y1017278D01*
X1691254Y1017272D01*
X1691132Y1017270D01*
X216408Y729996D02*
X216286Y729994D01*
X216164Y729988D01*
X216042Y729978D01*
X215921Y729965D01*
X215800Y729947D01*
X215680Y729926D01*
X215560Y729900D01*
X215442Y729871D01*
X215324Y729839D01*
X215207Y729802D01*
X215092Y729762D01*
X214978Y729718D01*
X214866Y729670D01*
X214755Y729619D01*
X214646Y729564D01*
X214538Y729506D01*
X214433Y729444D01*
X214330Y729379D01*
X214228Y729311D01*
X214129Y729239D01*
X214033Y729165D01*
X213938Y729087D01*
X213847Y729006D01*
X213757Y728923D01*
X213671Y728837D01*
X213588Y728747D01*
X213507Y728656D01*
X213429Y728561D01*
X213355Y728465D01*
X213283Y728366D01*
X213215Y728264D01*
X213150Y728161D01*
X213088Y728056D01*
X213030Y727948D01*
X212975Y727839D01*
X212924Y727728D01*
X212876Y727616D01*
X212832Y727502D01*
X212792Y727387D01*
X212755Y727270D01*
X212723Y727152D01*
X212694Y727034D01*
X212668Y726914D01*
X212647Y726794D01*
X212629Y726673D01*
X212616Y726552D01*
X212606Y726430D01*
X212600Y726308D01*
X212598Y726186D01*
X212600Y726064D01*
X212606Y725942D01*
X212616Y725820D01*
X212629Y725699D01*
X212647Y725578D01*
X212668Y725458D01*
X212694Y725338D01*
X212723Y725220D01*
X212755Y725102D01*
X212792Y724985D01*
X212832Y724870D01*
X212876Y724756D01*
X212924Y724644D01*
X212975Y724533D01*
X213030Y724424D01*
X213088Y724316D01*
X213150Y724211D01*
X213215Y724108D01*
X213283Y724006D01*
X213355Y723907D01*
X213429Y723811D01*
X213507Y723716D01*
X213588Y723625D01*
X213671Y723535D01*
X213757Y723449D01*
X213847Y723366D01*
X213938Y723285D01*
X214033Y723207D01*
X214129Y723133D01*
X214228Y723061D01*
X214330Y722993D01*
X214433Y722928D01*
X214538Y722866D01*
X214646Y722808D01*
X214755Y722753D01*
X214866Y722702D01*
X214978Y722654D01*
X215092Y722610D01*
X215207Y722570D01*
X215324Y722533D01*
X215442Y722501D01*
X215560Y722472D01*
X215680Y722446D01*
X215800Y722425D01*
X215921Y722407D01*
X216042Y722394D01*
X216164Y722384D01*
X216286Y722378D01*
X216408Y722376D01*
X216530Y722378D01*
X216652Y722384D01*
X216774Y722394D01*
X216895Y722407D01*
X217016Y722425D01*
X217136Y722446D01*
X217256Y722472D01*
X217374Y722501D01*
X217492Y722533D01*
X217609Y722570D01*
X217724Y722610D01*
X217838Y722654D01*
X217950Y722702D01*
X218061Y722753D01*
X218170Y722808D01*
X218278Y722866D01*
X218383Y722928D01*
X218486Y722993D01*
X218588Y723061D01*
X218687Y723133D01*
X218783Y723207D01*
X218878Y723285D01*
X218969Y723366D01*
X219059Y723449D01*
X219145Y723535D01*
X219228Y723625D01*
X219309Y723716D01*
X219387Y723811D01*
X219461Y723907D01*
X219533Y724006D01*
X219601Y724108D01*
X219666Y724211D01*
X219728Y724316D01*
X219786Y724424D01*
X219841Y724533D01*
X219892Y724644D01*
X219940Y724756D01*
X219984Y724870D01*
X220024Y724985D01*
X220061Y725102D01*
X220093Y725220D01*
X220122Y725338D01*
X220148Y725458D01*
X220169Y725578D01*
X220187Y725699D01*
X220200Y725820D01*
X220210Y725942D01*
X220216Y726064D01*
X220218Y726186D01*
X220216Y726308D01*
X220210Y726430D01*
X220200Y726552D01*
X220187Y726673D01*
X220169Y726794D01*
X220148Y726914D01*
X220122Y727034D01*
X220093Y727152D01*
X220061Y727270D01*
X220024Y727387D01*
X219984Y727502D01*
X219940Y727616D01*
X219892Y727728D01*
X219841Y727839D01*
X219786Y727948D01*
X219728Y728056D01*
X219666Y728161D01*
X219601Y728264D01*
X219533Y728366D01*
X219461Y728465D01*
X219387Y728561D01*
X219309Y728656D01*
X219228Y728747D01*
X219145Y728837D01*
X219059Y728923D01*
X218969Y729006D01*
X218878Y729087D01*
X218783Y729165D01*
X218687Y729239D01*
X218588Y729311D01*
X218486Y729379D01*
X218383Y729444D01*
X218278Y729506D01*
X218170Y729564D01*
X218061Y729619D01*
X217950Y729670D01*
X217838Y729718D01*
X217724Y729762D01*
X217609Y729802D01*
X217492Y729839D01*
X217374Y729871D01*
X217256Y729900D01*
X217136Y729926D01*
X217016Y729947D01*
X216895Y729965D01*
X216774Y729978D01*
X216652Y729988D01*
X216530Y729994D01*
X216408Y729996D01*
X217424Y1020064D02*
X217302Y1020066D01*
X217180Y1020072D01*
X217058Y1020082D01*
X216937Y1020095D01*
X216816Y1020113D01*
X216696Y1020134D01*
X216576Y1020160D01*
X216458Y1020189D01*
X216340Y1020221D01*
X216223Y1020258D01*
X216108Y1020298D01*
X215994Y1020342D01*
X215882Y1020390D01*
X215771Y1020441D01*
X215662Y1020496D01*
X215554Y1020554D01*
X215449Y1020616D01*
X215346Y1020681D01*
X215244Y1020749D01*
X215145Y1020821D01*
X215049Y1020895D01*
X214954Y1020973D01*
X214863Y1021054D01*
X214773Y1021137D01*
X214687Y1021223D01*
X214604Y1021313D01*
X214523Y1021404D01*
X214445Y1021499D01*
X214371Y1021595D01*
X214299Y1021694D01*
X214231Y1021796D01*
X214166Y1021899D01*
X214104Y1022004D01*
X214046Y1022112D01*
X213991Y1022221D01*
X213940Y1022332D01*
X213892Y1022444D01*
X213848Y1022558D01*
X213808Y1022673D01*
X213771Y1022790D01*
X213739Y1022908D01*
X213710Y1023026D01*
X213684Y1023146D01*
X213663Y1023266D01*
X213645Y1023387D01*
X213632Y1023508D01*
X213622Y1023630D01*
X213616Y1023752D01*
X213614Y1023874D01*
X213616Y1023996D01*
X213622Y1024118D01*
X213632Y1024240D01*
X213645Y1024361D01*
X213663Y1024482D01*
X213684Y1024602D01*
X213710Y1024722D01*
X213739Y1024840D01*
X213771Y1024958D01*
X213808Y1025075D01*
X213848Y1025190D01*
X213892Y1025304D01*
X213940Y1025416D01*
X213991Y1025527D01*
X214046Y1025636D01*
X214104Y1025744D01*
X214166Y1025849D01*
X214231Y1025952D01*
X214299Y1026054D01*
X214371Y1026153D01*
X214445Y1026249D01*
X214523Y1026344D01*
X214604Y1026435D01*
X214687Y1026525D01*
X214773Y1026611D01*
X214863Y1026694D01*
X214954Y1026775D01*
X215049Y1026853D01*
X215145Y1026927D01*
X215244Y1026999D01*
X215346Y1027067D01*
X215449Y1027132D01*
X215554Y1027194D01*
X215662Y1027252D01*
X215771Y1027307D01*
X215882Y1027358D01*
X215994Y1027406D01*
X216108Y1027450D01*
X216223Y1027490D01*
X216340Y1027527D01*
X216458Y1027559D01*
X216576Y1027588D01*
X216696Y1027614D01*
X216816Y1027635D01*
X216937Y1027653D01*
X217058Y1027666D01*
X217180Y1027676D01*
X217302Y1027682D01*
X217424Y1027684D01*
X217546Y1027682D01*
X217668Y1027676D01*
X217790Y1027666D01*
X217911Y1027653D01*
X218032Y1027635D01*
X218152Y1027614D01*
X218272Y1027588D01*
X218390Y1027559D01*
X218508Y1027527D01*
X218625Y1027490D01*
X218740Y1027450D01*
X218854Y1027406D01*
X218966Y1027358D01*
X219077Y1027307D01*
X219186Y1027252D01*
X219294Y1027194D01*
X219399Y1027132D01*
X219502Y1027067D01*
X219604Y1026999D01*
X219703Y1026927D01*
X219799Y1026853D01*
X219894Y1026775D01*
X219985Y1026694D01*
X220075Y1026611D01*
X220161Y1026525D01*
X220244Y1026435D01*
X220325Y1026344D01*
X220403Y1026249D01*
X220477Y1026153D01*
X220549Y1026054D01*
X220617Y1025952D01*
X220682Y1025849D01*
X220744Y1025744D01*
X220802Y1025636D01*
X220857Y1025527D01*
X220908Y1025416D01*
X220956Y1025304D01*
X221000Y1025190D01*
X221040Y1025075D01*
X221077Y1024958D01*
X221109Y1024840D01*
X221138Y1024722D01*
X221164Y1024602D01*
X221185Y1024482D01*
X221203Y1024361D01*
X221216Y1024240D01*
X221226Y1024118D01*
X221232Y1023996D01*
X221234Y1023874D01*
X221232Y1023752D01*
X221226Y1023630D01*
X221216Y1023508D01*
X221203Y1023387D01*
X221185Y1023266D01*
X221164Y1023146D01*
X221138Y1023026D01*
X221109Y1022908D01*
X221077Y1022790D01*
X221040Y1022673D01*
X221000Y1022558D01*
X220956Y1022444D01*
X220908Y1022332D01*
X220857Y1022221D01*
X220802Y1022112D01*
X220744Y1022004D01*
X220682Y1021899D01*
X220617Y1021796D01*
X220549Y1021694D01*
X220477Y1021595D01*
X220403Y1021499D01*
X220325Y1021404D01*
X220244Y1021313D01*
X220161Y1021223D01*
X220075Y1021137D01*
X219985Y1021054D01*
X219894Y1020973D01*
X219799Y1020895D01*
X219703Y1020821D01*
X219604Y1020749D01*
X219502Y1020681D01*
X219399Y1020616D01*
X219294Y1020554D01*
X219186Y1020496D01*
X219077Y1020441D01*
X218966Y1020390D01*
X218854Y1020342D01*
X218740Y1020298D01*
X218625Y1020258D01*
X218508Y1020221D01*
X218390Y1020189D01*
X218272Y1020160D01*
X218152Y1020134D01*
X218032Y1020113D01*
X217911Y1020095D01*
X217790Y1020082D01*
X217668Y1020072D01*
X217546Y1020066D01*
X217424Y1020064D01*
X116586Y1019810D02*
X116464Y1019812D01*
X116342Y1019818D01*
X116220Y1019828D01*
X116099Y1019841D01*
X115978Y1019859D01*
X115858Y1019880D01*
X115738Y1019906D01*
X115620Y1019935D01*
X115502Y1019967D01*
X115385Y1020004D01*
X115270Y1020044D01*
X115156Y1020088D01*
X115044Y1020136D01*
X114933Y1020187D01*
X114824Y1020242D01*
X114716Y1020300D01*
X114611Y1020362D01*
X114508Y1020427D01*
X114406Y1020495D01*
X114307Y1020567D01*
X114211Y1020641D01*
X114116Y1020719D01*
X114025Y1020800D01*
X113935Y1020883D01*
X113849Y1020969D01*
X113766Y1021059D01*
X113685Y1021150D01*
X113607Y1021245D01*
X113533Y1021341D01*
X113461Y1021440D01*
X113393Y1021542D01*
X113328Y1021645D01*
X113266Y1021750D01*
X113208Y1021858D01*
X113153Y1021967D01*
X113102Y1022078D01*
X113054Y1022190D01*
X113010Y1022304D01*
X112970Y1022419D01*
X112933Y1022536D01*
X112901Y1022654D01*
X112872Y1022772D01*
X112846Y1022892D01*
X112825Y1023012D01*
X112807Y1023133D01*
X112794Y1023254D01*
X112784Y1023376D01*
X112778Y1023498D01*
X112776Y1023620D01*
X112778Y1023742D01*
X112784Y1023864D01*
X112794Y1023986D01*
X112807Y1024107D01*
X112825Y1024228D01*
X112846Y1024348D01*
X112872Y1024468D01*
X112901Y1024586D01*
X112933Y1024704D01*
X112970Y1024821D01*
X113010Y1024936D01*
X113054Y1025050D01*
X113102Y1025162D01*
X113153Y1025273D01*
X113208Y1025382D01*
X113266Y1025490D01*
X113328Y1025595D01*
X113393Y1025698D01*
X113461Y1025800D01*
X113533Y1025899D01*
X113607Y1025995D01*
X113685Y1026090D01*
X113766Y1026181D01*
X113849Y1026271D01*
X113935Y1026357D01*
X114025Y1026440D01*
X114116Y1026521D01*
X114211Y1026599D01*
X114307Y1026673D01*
X114406Y1026745D01*
X114508Y1026813D01*
X114611Y1026878D01*
X114716Y1026940D01*
X114824Y1026998D01*
X114933Y1027053D01*
X115044Y1027104D01*
X115156Y1027152D01*
X115270Y1027196D01*
X115385Y1027236D01*
X115502Y1027273D01*
X115620Y1027305D01*
X115738Y1027334D01*
X115858Y1027360D01*
X115978Y1027381D01*
X116099Y1027399D01*
X116220Y1027412D01*
X116342Y1027422D01*
X116464Y1027428D01*
X116586Y1027430D01*
X116708Y1027428D01*
X116830Y1027422D01*
X116952Y1027412D01*
X117073Y1027399D01*
X117194Y1027381D01*
X117314Y1027360D01*
X117434Y1027334D01*
X117552Y1027305D01*
X117670Y1027273D01*
X117787Y1027236D01*
X117902Y1027196D01*
X118016Y1027152D01*
X118128Y1027104D01*
X118239Y1027053D01*
X118348Y1026998D01*
X118456Y1026940D01*
X118561Y1026878D01*
X118664Y1026813D01*
X118766Y1026745D01*
X118865Y1026673D01*
X118961Y1026599D01*
X119056Y1026521D01*
X119147Y1026440D01*
X119237Y1026357D01*
X119323Y1026271D01*
X119406Y1026181D01*
X119487Y1026090D01*
X119565Y1025995D01*
X119639Y1025899D01*
X119711Y1025800D01*
X119779Y1025698D01*
X119844Y1025595D01*
X119906Y1025490D01*
X119964Y1025382D01*
X120019Y1025273D01*
X120070Y1025162D01*
X120118Y1025050D01*
X120162Y1024936D01*
X120202Y1024821D01*
X120239Y1024704D01*
X120271Y1024586D01*
X120300Y1024468D01*
X120326Y1024348D01*
X120347Y1024228D01*
X120365Y1024107D01*
X120378Y1023986D01*
X120388Y1023864D01*
X120394Y1023742D01*
X120396Y1023620D01*
X120394Y1023498D01*
X120388Y1023376D01*
X120378Y1023254D01*
X120365Y1023133D01*
X120347Y1023012D01*
X120326Y1022892D01*
X120300Y1022772D01*
X120271Y1022654D01*
X120239Y1022536D01*
X120202Y1022419D01*
X120162Y1022304D01*
X120118Y1022190D01*
X120070Y1022078D01*
X120019Y1021967D01*
X119964Y1021858D01*
X119906Y1021750D01*
X119844Y1021645D01*
X119779Y1021542D01*
X119711Y1021440D01*
X119639Y1021341D01*
X119565Y1021245D01*
X119487Y1021150D01*
X119406Y1021059D01*
X119323Y1020969D01*
X119237Y1020883D01*
X119147Y1020800D01*
X119056Y1020719D01*
X118961Y1020641D01*
X118865Y1020567D01*
X118766Y1020495D01*
X118664Y1020427D01*
X118561Y1020362D01*
X118456Y1020300D01*
X118348Y1020242D01*
X118239Y1020187D01*
X118128Y1020136D01*
X118016Y1020088D01*
X117902Y1020044D01*
X117787Y1020004D01*
X117670Y1019967D01*
X117552Y1019935D01*
X117434Y1019906D01*
X117314Y1019880D01*
X117194Y1019859D01*
X117073Y1019841D01*
X116952Y1019828D01*
X116830Y1019818D01*
X116708Y1019812D01*
X116586Y1019810D01*
X116586Y729742D02*
X116464Y729740D01*
X116342Y729734D01*
X116220Y729724D01*
X116099Y729711D01*
X115978Y729693D01*
X115858Y729672D01*
X115738Y729646D01*
X115620Y729617D01*
X115502Y729585D01*
X115385Y729548D01*
X115270Y729508D01*
X115156Y729464D01*
X115044Y729416D01*
X114933Y729365D01*
X114824Y729310D01*
X114716Y729252D01*
X114611Y729190D01*
X114508Y729125D01*
X114406Y729057D01*
X114307Y728985D01*
X114211Y728911D01*
X114116Y728833D01*
X114025Y728752D01*
X113935Y728669D01*
X113849Y728583D01*
X113766Y728493D01*
X113685Y728402D01*
X113607Y728307D01*
X113533Y728211D01*
X113461Y728112D01*
X113393Y728010D01*
X113328Y727907D01*
X113266Y727802D01*
X113208Y727694D01*
X113153Y727585D01*
X113102Y727474D01*
X113054Y727362D01*
X113010Y727248D01*
X112970Y727133D01*
X112933Y727016D01*
X112901Y726898D01*
X112872Y726780D01*
X112846Y726660D01*
X112825Y726540D01*
X112807Y726419D01*
X112794Y726298D01*
X112784Y726176D01*
X112778Y726054D01*
X112776Y725932D01*
X112778Y725810D01*
X112784Y725688D01*
X112794Y725566D01*
X112807Y725445D01*
X112825Y725324D01*
X112846Y725204D01*
X112872Y725084D01*
X112901Y724966D01*
X112933Y724848D01*
X112970Y724731D01*
X113010Y724616D01*
X113054Y724502D01*
X113102Y724390D01*
X113153Y724279D01*
X113208Y724170D01*
X113266Y724062D01*
X113328Y723957D01*
X113393Y723854D01*
X113461Y723752D01*
X113533Y723653D01*
X113607Y723557D01*
X113685Y723462D01*
X113766Y723371D01*
X113849Y723281D01*
X113935Y723195D01*
X114025Y723112D01*
X114116Y723031D01*
X114211Y722953D01*
X114307Y722879D01*
X114406Y722807D01*
X114508Y722739D01*
X114611Y722674D01*
X114716Y722612D01*
X114824Y722554D01*
X114933Y722499D01*
X115044Y722448D01*
X115156Y722400D01*
X115270Y722356D01*
X115385Y722316D01*
X115502Y722279D01*
X115620Y722247D01*
X115738Y722218D01*
X115858Y722192D01*
X115978Y722171D01*
X116099Y722153D01*
X116220Y722140D01*
X116342Y722130D01*
X116464Y722124D01*
X116586Y722122D01*
X116708Y722124D01*
X116830Y722130D01*
X116952Y722140D01*
X117073Y722153D01*
X117194Y722171D01*
X117314Y722192D01*
X117434Y722218D01*
X117552Y722247D01*
X117670Y722279D01*
X117787Y722316D01*
X117902Y722356D01*
X118016Y722400D01*
X118128Y722448D01*
X118239Y722499D01*
X118348Y722554D01*
X118456Y722612D01*
X118561Y722674D01*
X118664Y722739D01*
X118766Y722807D01*
X118865Y722879D01*
X118961Y722953D01*
X119056Y723031D01*
X119147Y723112D01*
X119237Y723195D01*
X119323Y723281D01*
X119406Y723371D01*
X119487Y723462D01*
X119565Y723557D01*
X119639Y723653D01*
X119711Y723752D01*
X119779Y723854D01*
X119844Y723957D01*
X119906Y724062D01*
X119964Y724170D01*
X120019Y724279D01*
X120070Y724390D01*
X120118Y724502D01*
X120162Y724616D01*
X120202Y724731D01*
X120239Y724848D01*
X120271Y724966D01*
X120300Y725084D01*
X120326Y725204D01*
X120347Y725324D01*
X120365Y725445D01*
X120378Y725566D01*
X120388Y725688D01*
X120394Y725810D01*
X120396Y725932D01*
X120394Y726054D01*
X120388Y726176D01*
X120378Y726298D01*
X120365Y726419D01*
X120347Y726540D01*
X120326Y726660D01*
X120300Y726780D01*
X120271Y726898D01*
X120239Y727016D01*
X120202Y727133D01*
X120162Y727248D01*
X120118Y727362D01*
X120070Y727474D01*
X120019Y727585D01*
X119964Y727694D01*
X119906Y727802D01*
X119844Y727907D01*
X119779Y728010D01*
X119711Y728112D01*
X119639Y728211D01*
X119565Y728307D01*
X119487Y728402D01*
X119406Y728493D01*
X119323Y728583D01*
X119237Y728669D01*
X119147Y728752D01*
X119056Y728833D01*
X118961Y728911D01*
X118865Y728985D01*
X118766Y729057D01*
X118664Y729125D01*
X118561Y729190D01*
X118456Y729252D01*
X118348Y729310D01*
X118239Y729365D01*
X118128Y729416D01*
X118016Y729464D01*
X117902Y729508D01*
X117787Y729548D01*
X117670Y729585D01*
X117552Y729617D01*
X117434Y729646D01*
X117314Y729672D01*
X117194Y729693D01*
X117073Y729711D01*
X116952Y729724D01*
X116830Y729734D01*
X116708Y729740D01*
X116586Y729742D01*
M02*
